<svg aria-hidden="true" style="position: absolute; width: 0; height: 0; overflow: hidden;" version="1.1" xmlns="http://www.w3.org/2000/svg" xmlns:xlink="http://www.w3.org/1999/xlink">
<defs>
<symbol id="icon-menu" viewBox="0 0 20 20">
<title>menu</title>
<path d="M0 3h20v2h-20v-2zM0 9h20v2h-20v-2zM0 15h20v2h-20v-2z"></path>
</symbol>
<symbol id="icon-filter_vintage" viewBox="0 0 24 24">
<title>filter_vintage</title>
<path d="M12 15.984c2.203 0 3.984-1.781 3.984-3.984s-1.781-3.984-3.984-3.984-3.984 1.781-3.984 3.984 1.781 3.984 3.984 3.984zM2.297 17.578c0-2.307 1.47-4.787 3.844-5.578-0.281-0.094-0.563-0.281-0.844-0.422-1.922-1.125-3-3.094-3-5.156 1.781-1.031 4.078-1.125 6 0 0.281 0.141 0.563 0.328 0.797 0.516-0.047-0.328-0.094-0.609-0.094-0.938 0-2.203 1.219-4.172 3-5.203 1.781 1.031 3 3 3 5.203 0 0.328-0.047 0.609-0.094 0.938 0.234-0.188 0.516-0.375 0.797-0.516 1.922-1.125 4.219-1.031 6 0 0 2.063-1.078 4.031-3 5.156-0.281 0.141-0.563 0.328-0.844 0.422 0.281 0.094 0.563 0.281 0.844 0.422 1.922 1.125 3 3.094 3 5.156-1.781 1.031-4.078 1.125-6 0-0.281-0.141-0.563-0.328-0.797-0.516 0.047 0.328 0.094 0.609 0.094 0.938 0 2.203-1.219 4.172-3 5.203-1.781-1.031-3-3-3-5.203 0-0.328 0.047-0.609 0.094-0.938-0.234 0.188-0.516 0.375-0.797 0.516-1.922 1.125-4.219 1.031-6 0z"></path>
</symbol>
<symbol id="icon-cancel" viewBox="0 0 32 32">
<title>cancel</title>
<path d="M19.587 16.001l6.096 6.096c0.396 0.396 0.396 1.039 0 1.435l-2.151 2.151c-0.396 0.396-1.038 0.396-1.435 0l-6.097-6.096-6.097 6.096c-0.396 0.396-1.038 0.396-1.434 0l-2.152-2.151c-0.396-0.396-0.396-1.038 0-1.435l6.097-6.096-6.097-6.097c-0.396-0.396-0.396-1.039 0-1.435l2.153-2.151c0.396-0.396 1.038-0.396 1.434 0l6.096 6.097 6.097-6.097c0.396-0.396 1.038-0.396 1.435 0l2.151 2.152c0.396 0.396 0.396 1.038 0 1.435l-6.096 6.096z"></path>
</symbol>
</defs>
</svg>
